<?xml version="1.0" encoding="UTF-8"?>
<svg width="600" height="400" viewBox="0 0 600 400" xmlns="http://www.w3.org/2000/svg" aria-labelledby="title desc" role="img">
  <title>Grilled Fish</title>
  <desc>Stylized icon of a grilled fish on a plate</desc>
  <rect width="100%" height="100%" fill="#fffaf0"/>
  <ellipse cx="300" cy="220" rx="210" ry="80" fill="#fff" stroke="#efe1c6" stroke-width="4"/>
  <g transform="translate(120,120)">
    <path d="M30 80 C 70 10, 190 10, 230 80 C 200 70, 160 50, 100 60 C 60 66, 40 75, 30 80 Z" fill="#c4e0c4"/>
    <path d="M40 70 C 80 10, 180 10, 220 70" fill="none" stroke="#7fb07f" stroke-width="10" stroke-linecap="round"/>
    <g transform="translate(40,28)">
      <ellipse cx="110" cy="22" rx="40" ry="18" fill="#f6dca6" stroke="#e7c98a" stroke-width="2"/>
      <line x1="80" y1="22" x2="140" y2="22" stroke="#d7b66a" stroke-width="3" stroke-linecap="round"/>
      <g fill="#c45a3a">
        <rect x="24" y="5" width="8" height="8" rx="2"/>
        <rect x="46" y="8" width="8" height="6" rx="2"/>
        <rect x="68" y="4" width="8" height="10" rx="2"/>
      </g>
    </g>
    <path d="M8 80 C -8 60, -8 40, 16 28" stroke="#7fb07f" stroke-width="6" fill="none" stroke-linecap="round"/>
  </g>
  <text x="300" y="360" text-anchor="middle" font-family="sans-serif" font-size="20" fill="#6a6a6a">Grilled Fish</text>
</svg>
